<?xml version="1.0" standalone="no"?>
<!DOCTYPE svg PUBLIC "-//W3C//DTD SVG 20010904//EN"
 "http://www.w3.org/TR/2001/REC-SVG-20010904/DTD/svg10.dtd">
<svg version="1.0" xmlns="http://www.w3.org/2000/svg"
 width="512.000000pt" height="512.000000pt" viewBox="0 0 512.000000 512.000000"
 preserveAspectRatio="xMidYMid meet">
<metadata>
Created by potrace 1.14, written by Peter Selinger 2001-2017
</metadata>
<g transform="translate(0.000000,512.000000) scale(0.100000,-0.100000)"
fill="#000000" stroke="none">
<path d="M2321 5110 c-497 -48 -990 -251 -1376 -565 -114 -92 -294 -274 -384
-387 -229 -287 -417 -675 -495 -1023 -49 -218 -60 -325 -60 -575 0 -250 11
-357 60 -575 79 -355 272 -749 509 -1040 92 -114 274 -294 387 -384 287 -229
675 -417 1023 -495 218 -49 325 -60 575 -60 250 0 357 11 575 60 261 58 603
204 828 353 389 259 688 599 893 1016 125 255 196 484 241 775 24 161 24 539
0 700 -45 291 -116 520 -241 775 -134 272 -283 480 -498 692 -211 209 -404
346 -673 478 -252 124 -486 197 -765 240 -126 19 -468 27 -599 15z m399 -731
c114 -10 253 -36 340 -61 l44 -14 -87 -33 c-539 -203 -956 -654 -1116 -1206
-94 -327 -94 -683 0 -1010 160 -552 577 -1003 1116 -1206 l87 -33 -44 -14
c-289 -85 -644 -90 -955 -11 -635 161 -1153 679 -1314 1314 -57 224 -72 522
-37 730 68 403 237 736 516 1015 385 385 916 579 1450 529z m986 -1588 c2 -3
118 -21 257 -42 138 -21 252 -38 253 -38 1 -1 -82 -83 -183 -184 l-184 -182
42 -248 c24 -135 40 -249 37 -252 -3 -3 -104 46 -224 110 -120 63 -224 115
-229 115 -6 0 -109 -52 -229 -115 -121 -63 -222 -115 -226 -115 -4 0 13 114
37 253 l44 252 -186 182 c-164 161 -184 183 -163 187 13 3 120 19 238 36 118
17 224 33 236 35 15 3 48 60 134 237 l113 232 115 -230 c63 -126 116 -231 118
-233z"/>
</g>
</svg>
